<mxfile host="app.diagrams.net" agent="Mozilla/5.0 (Windows NT 10.0; Win64; x64) AppleWebKit/537.36 (KHTML, like Gecko) Chrome/129.0.0.0 Safari/537.36" version="24.7.17">
  <diagram id="Ht1M8jgEwFfnCIfOTk4-" name="Page-1">
    <mxGraphModel dx="1600" dy="1696" grid="1" gridSize="10" guides="1" tooltips="1" connect="1" arrows="1" fold="1" page="1" pageScale="1" pageWidth="1169" pageHeight="827" math="0" shadow="0">
      <root>
        <mxCell id="0" />
        <mxCell id="1" parent="0" />
        <mxCell id="k4fKLfA-_JbR_TIll8N7-3" value="Internet&amp;nbsp;&lt;div&gt;Gateway&lt;/div&gt;" style="text;strokeColor=none;fillColor=none;html=1;fontSize=24;fontStyle=1;verticalAlign=middle;align=center;" vertex="1" parent="1">
          <mxGeometry x="280" y="-240" width="100" height="40" as="geometry" />
        </mxCell>
        <mxCell id="k4fKLfA-_JbR_TIll8N7-7" value="&lt;font style=&quot;font-size: 24px;&quot;&gt;Public subnet&lt;/font&gt;" style="points=[[0,0],[0.25,0],[0.5,0],[0.75,0],[1,0],[1,0.25],[1,0.5],[1,0.75],[1,1],[0.75,1],[0.5,1],[0.25,1],[0,1],[0,0.75],[0,0.5],[0,0.25]];outlineConnect=0;gradientColor=none;html=1;whiteSpace=wrap;fontSize=12;fontStyle=0;container=1;pointerEvents=0;collapsible=0;recursiveResize=0;shape=mxgraph.aws4.group;grIcon=mxgraph.aws4.group_security_group;grStroke=0;strokeColor=#7AA116;fillColor=#F2F6E8;verticalAlign=top;align=left;spacingLeft=30;fontColor=#248814;dashed=0;" vertex="1" parent="1">
          <mxGeometry x="420" y="-580" width="710" height="640" as="geometry" />
        </mxCell>
        <mxCell id="k4fKLfA-_JbR_TIll8N7-4" value="" style="verticalLabelPosition=bottom;html=1;verticalAlign=top;strokeWidth=1;align=center;outlineConnect=0;dashed=0;outlineConnect=0;shape=mxgraph.aws3d.application_server;fillColor=#ECECEC;strokeColor=#5E5E5E;aspect=fixed;" vertex="1" parent="k4fKLfA-_JbR_TIll8N7-7">
          <mxGeometry x="440" y="218" width="123" height="124" as="geometry" />
        </mxCell>
        <mxCell id="k4fKLfA-_JbR_TIll8N7-6" value="" style="outlineConnect=0;dashed=0;verticalLabelPosition=bottom;verticalAlign=top;align=center;html=1;shape=mxgraph.aws3.route_table;fillColor=#F58536;gradientColor=none;" vertex="1" parent="k4fKLfA-_JbR_TIll8N7-7">
          <mxGeometry x="100" y="245.5" width="75" height="69" as="geometry" />
        </mxCell>
        <mxCell id="k4fKLfA-_JbR_TIll8N7-2" value="Actor" style="shape=umlActor;verticalLabelPosition=bottom;verticalAlign=top;html=1;" vertex="1" parent="1">
          <mxGeometry x="160" y="-350" width="60" height="100" as="geometry" />
        </mxCell>
        <mxCell id="UEzPUAAOIrF-is8g5C7q-155" value="" style="rounded=0;whiteSpace=wrap;html=1;dashed=1;labelBackgroundColor=#ffffff;fillColor=none;gradientColor=none;container=1;pointerEvents=0;collapsible=0;recursiveResize=0;" parent="1" vertex="1">
          <mxGeometry x="330" y="-700" width="810" height="875" as="geometry" />
        </mxCell>
        <mxCell id="k4fKLfA-_JbR_TIll8N7-11" value="Security group" style="fillColor=none;strokeColor=#ea6657;verticalAlign=top;fontStyle=0;fontColor=#DD3522;whiteSpace=wrap;html=1;strokeWidth=5;" vertex="1" parent="UEzPUAAOIrF-is8g5C7q-155">
          <mxGeometry x="490" y="309" width="210" height="201" as="geometry" />
        </mxCell>
        <mxCell id="k4fKLfA-_JbR_TIll8N7-12" value="&lt;div style=&quot;text-align: justify; font-size: 35px;&quot;&gt;&lt;span style=&quot;background-color: initial;&quot;&gt;&lt;font style=&quot;font-size: 35px;&quot;&gt;&lt;b&gt;N&lt;/b&gt;&lt;/font&gt;&lt;/span&gt;&lt;/div&gt;&lt;div style=&quot;text-align: justify; font-size: 35px;&quot;&gt;&lt;span style=&quot;background-color: initial;&quot;&gt;&lt;font style=&quot;font-size: 35px;&quot;&gt;&lt;b&gt;A&lt;/b&gt;&lt;/font&gt;&lt;/span&gt;&lt;/div&gt;&lt;div style=&quot;text-align: justify; font-size: 35px;&quot;&gt;&lt;span style=&quot;background-color: initial;&quot;&gt;&lt;font style=&quot;font-size: 35px;&quot;&gt;&lt;b&gt;C&lt;/b&gt;&lt;/font&gt;&lt;/span&gt;&lt;/div&gt;&lt;div style=&quot;text-align: justify; font-size: 35px;&quot;&gt;&lt;span style=&quot;background-color: initial;&quot;&gt;&lt;font style=&quot;font-size: 35px;&quot;&gt;&lt;b&gt;L&lt;/b&gt;&lt;/font&gt;&lt;/span&gt;&lt;/div&gt;" style="fontStyle=0;verticalAlign=top;align=center;spacingTop=-2;fillColor=none;rounded=0;whiteSpace=wrap;html=1;strokeColor=#FF0000;strokeWidth=10;container=1;collapsible=0;expand=0;recursiveResize=0;" vertex="1" parent="UEzPUAAOIrF-is8g5C7q-155">
          <mxGeometry x="69" y="300" width="81" height="180" as="geometry" />
        </mxCell>
        <mxCell id="k4fKLfA-_JbR_TIll8N7-19" value="" style="endArrow=none;html=1;rounded=0;" edge="1" parent="k4fKLfA-_JbR_TIll8N7-12">
          <mxGeometry width="50" height="50" relative="1" as="geometry">
            <mxPoint x="61" y="99.00999999999999" as="sourcePoint" />
            <mxPoint x="121" y="100" as="targetPoint" />
          </mxGeometry>
        </mxCell>
        <mxCell id="k4fKLfA-_JbR_TIll8N7-15" value="" style="endArrow=none;html=1;rounded=0;" edge="1" parent="UEzPUAAOIrF-is8g5C7q-155">
          <mxGeometry width="50" height="50" relative="1" as="geometry">
            <mxPoint y="400" as="sourcePoint" />
            <mxPoint x="90" y="400" as="targetPoint" />
          </mxGeometry>
        </mxCell>
        <mxCell id="k4fKLfA-_JbR_TIll8N7-28" value="&lt;font style=&quot;font-size: 20px;&quot;&gt;Route&lt;/font&gt;&lt;div style=&quot;font-size: 20px;&quot;&gt;&lt;font style=&quot;font-size: 20px;&quot;&gt;table&lt;/font&gt;&lt;/div&gt;" style="text;strokeColor=none;fillColor=none;html=1;fontSize=24;fontStyle=1;verticalAlign=middle;align=center;" vertex="1" parent="UEzPUAAOIrF-is8g5C7q-155">
          <mxGeometry x="180" y="450" width="100" height="40" as="geometry" />
        </mxCell>
        <mxCell id="k4fKLfA-_JbR_TIll8N7-30" value="&lt;span style=&quot;font-size: 20px;&quot;&gt;EC2 Instance&lt;/span&gt;" style="text;strokeColor=none;fillColor=none;html=1;fontSize=24;fontStyle=1;verticalAlign=middle;align=center;" vertex="1" parent="UEzPUAAOIrF-is8g5C7q-155">
          <mxGeometry x="545" y="460" width="100" height="40" as="geometry" />
        </mxCell>
        <mxCell id="k4fKLfA-_JbR_TIll8N7-10" value="" style="sketch=0;outlineConnect=0;fontColor=#232F3E;gradientColor=none;fillColor=#8C4FFF;strokeColor=none;dashed=0;verticalLabelPosition=bottom;verticalAlign=top;align=center;html=1;fontSize=12;fontStyle=0;aspect=fixed;pointerEvents=1;shape=mxgraph.aws4.internet_gateway;" vertex="1" parent="1">
          <mxGeometry x="291" y="-339" width="78" height="78" as="geometry" />
        </mxCell>
        <mxCell id="k4fKLfA-_JbR_TIll8N7-18" value="" style="endArrow=classic;html=1;rounded=0;exitX=1;exitY=0.5;exitDx=0;exitDy=0;exitPerimeter=0;" edge="1" parent="1" source="k4fKLfA-_JbR_TIll8N7-6">
          <mxGeometry width="50" height="50" relative="1" as="geometry">
            <mxPoint x="710" y="-270" as="sourcePoint" />
            <mxPoint x="820" y="-300" as="targetPoint" />
          </mxGeometry>
        </mxCell>
        <mxCell id="k4fKLfA-_JbR_TIll8N7-20" value="" style="endArrow=classic;html=1;rounded=0;exitX=0.5;exitY=0.5;exitDx=0;exitDy=0;exitPerimeter=0;" edge="1" parent="1" source="k4fKLfA-_JbR_TIll8N7-2" target="k4fKLfA-_JbR_TIll8N7-10">
          <mxGeometry width="50" height="50" relative="1" as="geometry">
            <mxPoint x="190" y="-289" as="sourcePoint" />
            <mxPoint x="240" y="-339" as="targetPoint" />
          </mxGeometry>
        </mxCell>
        <mxCell id="k4fKLfA-_JbR_TIll8N7-31" value="AWS Cloud" style="sketch=0;outlineConnect=0;gradientColor=none;html=1;whiteSpace=wrap;fontSize=12;fontStyle=0;shape=mxgraph.aws4.group;grIcon=mxgraph.aws4.group_aws_cloud;strokeColor=#AAB7B8;fillColor=none;verticalAlign=top;align=left;spacingLeft=30;fontColor=#AAB7B8;dashed=0;" vertex="1" parent="1">
          <mxGeometry x="40" y="-800" width="1180" height="1050" as="geometry" />
        </mxCell>
      </root>
    </mxGraphModel>
  </diagram>
</mxfile>
